<svg width="304" height="77" viewBox="0 0 304 77" fill="none" xmlns="http://www.w3.org/2000/svg">
<path d="M137.045 62V15.4545H155.409C158.939 15.4545 161.947 16.1288 164.432 17.4773C166.917 18.8106 168.811 20.6667 170.114 23.0455C171.432 25.4091 172.091 28.1364 172.091 31.2273C172.091 34.3182 171.424 37.0455 170.091 39.4091C168.758 41.7727 166.826 43.6136 164.295 44.9318C161.78 46.25 158.735 46.9091 155.159 46.9091H143.455V39.0227H153.568C155.462 39.0227 157.023 38.697 158.25 38.0455C159.492 37.3788 160.417 36.4621 161.023 35.2955C161.644 34.1136 161.955 32.7576 161.955 31.2273C161.955 29.6818 161.644 28.3333 161.023 27.1818C160.417 26.0151 159.492 25.1136 158.25 24.4773C157.008 23.8258 155.432 23.5 153.523 23.5H146.886V62H137.045ZM193.511 62.6818C189.981 62.6818 186.928 61.9318 184.352 60.4318C181.792 58.9167 179.814 56.8106 178.42 54.1136C177.027 51.4015 176.33 48.2576 176.33 44.6818C176.33 41.0758 177.027 37.9242 178.42 35.2273C179.814 32.5152 181.792 30.4091 184.352 28.9091C186.928 27.3939 189.981 26.6364 193.511 26.6364C197.042 26.6364 200.087 27.3939 202.648 28.9091C205.223 30.4091 207.208 32.5152 208.602 35.2273C209.996 37.9242 210.693 41.0758 210.693 44.6818C210.693 48.2576 209.996 51.4015 208.602 54.1136C207.208 56.8106 205.223 58.9167 202.648 60.4318C200.087 61.9318 197.042 62.6818 193.511 62.6818ZM193.557 55.1818C195.163 55.1818 196.504 54.7273 197.58 53.8182C198.655 52.8939 199.466 51.6364 200.011 50.0455C200.572 48.4545 200.852 46.6439 200.852 44.6136C200.852 42.5833 200.572 40.7727 200.011 39.1818C199.466 37.5909 198.655 36.3333 197.58 35.4091C196.504 34.4848 195.163 34.0227 193.557 34.0227C191.936 34.0227 190.572 34.4848 189.466 35.4091C188.375 36.3333 187.549 37.5909 186.989 39.1818C186.443 40.7727 186.17 42.5833 186.17 44.6136C186.17 46.6439 186.443 48.4545 186.989 50.0455C187.549 51.6364 188.375 52.8939 189.466 53.8182C190.572 54.7273 191.936 55.1818 193.557 55.1818ZM216.989 62V27.0909H226.67V62H216.989ZM221.852 22.5909C220.413 22.5909 219.178 22.1136 218.148 21.1591C217.133 20.1894 216.625 19.0303 216.625 17.6818C216.625 16.3485 217.133 15.2045 218.148 14.25C219.178 13.2803 220.413 12.7955 221.852 12.7955C223.292 12.7955 224.519 13.2803 225.534 14.25C226.564 15.2045 227.08 16.3485 227.08 17.6818C227.08 19.0303 226.564 20.1894 225.534 21.1591C224.519 22.1136 223.292 22.5909 221.852 22.5909ZM263.472 37.0455L254.608 37.5909C254.456 36.8333 254.131 36.1515 253.631 35.5455C253.131 34.9242 252.472 34.4318 251.653 34.0682C250.85 33.6894 249.888 33.5 248.767 33.5C247.267 33.5 246.002 33.8182 244.972 34.4545C243.941 35.0758 243.426 35.9091 243.426 36.9545C243.426 37.7879 243.759 38.4924 244.426 39.0682C245.093 39.6439 246.237 40.1061 247.858 40.4545L254.176 41.7273C257.57 42.4242 260.1 43.5455 261.767 45.0909C263.434 46.6364 264.267 48.6667 264.267 51.1818C264.267 53.4697 263.593 55.4773 262.244 57.2045C260.911 58.9318 259.078 60.2803 256.744 61.25C254.426 62.2045 251.752 62.6818 248.722 62.6818C244.1 62.6818 240.419 61.7197 237.676 59.7955C234.949 57.8561 233.35 55.2197 232.881 51.8864L242.403 51.3864C242.691 52.7955 243.388 53.8712 244.494 54.6136C245.6 55.3409 247.017 55.7045 248.744 55.7045C250.441 55.7045 251.805 55.3788 252.835 54.7273C253.881 54.0606 254.411 53.2045 254.426 52.1591C254.411 51.2803 254.04 50.5606 253.312 50C252.585 49.4242 251.464 48.9848 249.949 48.6818L243.903 47.4773C240.494 46.7955 237.956 45.6136 236.29 43.9318C234.638 42.25 233.812 40.1061 233.812 37.5C233.812 35.2576 234.419 33.3258 235.631 31.7045C236.858 30.0833 238.578 28.8333 240.79 27.9545C243.017 27.0758 245.623 26.6364 248.608 26.6364C253.017 26.6364 256.487 27.5682 259.017 29.4318C261.563 31.2955 263.047 33.8333 263.472 37.0455ZM279.136 51.9545L279.159 40.3409H280.568L291.75 27.0909H302.864L287.841 44.6364H285.545L279.136 51.9545ZM270.364 62V15.4545H280.045V62H270.364ZM292.182 62L281.909 46.7955L288.364 39.9545L303.523 62H292.182Z" fill="#CC5500"/>
<path d="M13.8864 15.4545V62H4.04545V15.4545H13.8864ZM31.483 41.8182V62H21.8011V27.0909H31.0284V33.25H31.4375C32.2102 31.2197 33.5057 29.6136 35.3239 28.4318C37.142 27.2348 39.3466 26.6364 41.9375 26.6364C44.3617 26.6364 46.4754 27.1667 48.2784 28.2273C50.0814 29.2879 51.483 30.803 52.483 32.7727C53.483 34.7273 53.983 37.0606 53.983 39.7727V62H44.3011V41.5C44.3163 39.3636 43.7708 37.697 42.6648 36.5C41.5587 35.2879 40.036 34.6818 38.0966 34.6818C36.7936 34.6818 35.642 34.9621 34.642 35.5227C33.6572 36.0833 32.8845 36.9015 32.3239 37.9773C31.7784 39.0379 31.4981 40.3182 31.483 41.8182ZM71.2955 41.8182V62H61.6136V27.0909H70.8409V33.25H71.25C72.0227 31.2197 73.3182 29.6136 75.1364 28.4318C76.9545 27.2348 79.1591 26.6364 81.75 26.6364C84.1742 26.6364 86.2879 27.1667 88.0909 28.2273C89.8939 29.2879 91.2955 30.803 92.2955 32.7727C93.2955 34.7273 93.7955 37.0606 93.7955 39.7727V62H84.1136V41.5C84.1288 39.3636 83.5833 37.697 82.4773 36.5C81.3712 35.2879 79.8485 34.6818 77.9091 34.6818C76.6061 34.6818 75.4545 34.9621 74.4545 35.5227C73.4697 36.0833 72.697 36.9015 72.1364 37.9773C71.5909 39.0379 71.3106 40.3182 71.2955 41.8182ZM117.199 62.6818C113.669 62.6818 110.616 61.9318 108.04 60.4318C105.479 58.9167 103.502 56.8106 102.108 54.1136C100.714 51.4015 100.017 48.2576 100.017 44.6818C100.017 41.0758 100.714 37.9242 102.108 35.2273C103.502 32.5152 105.479 30.4091 108.04 28.9091C110.616 27.3939 113.669 26.6364 117.199 26.6364C120.729 26.6364 123.775 27.3939 126.335 28.9091C128.911 30.4091 130.896 32.5152 132.29 35.2273C133.684 37.9242 134.381 41.0758 134.381 44.6818C134.381 48.2576 133.684 51.4015 132.29 54.1136C130.896 56.8106 128.911 58.9167 126.335 60.4318C123.775 61.9318 120.729 62.6818 117.199 62.6818ZM117.244 55.1818C118.85 55.1818 120.191 54.7273 121.267 53.8182C122.343 52.8939 123.153 51.6364 123.699 50.0455C124.259 48.4545 124.54 46.6439 124.54 44.6136C124.54 42.5833 124.259 40.7727 123.699 39.1818C123.153 37.5909 122.343 36.3333 121.267 35.4091C120.191 34.4848 118.85 34.0227 117.244 34.0227C115.623 34.0227 114.259 34.4848 113.153 35.4091C112.063 36.3333 111.237 37.5909 110.676 39.1818C110.131 40.7727 109.858 42.5833 109.858 44.6136C109.858 46.6439 110.131 48.4545 110.676 50.0455C111.237 51.6364 112.063 52.8939 113.153 53.8182C114.259 54.7273 115.623 55.1818 117.244 55.1818Z" fill="white"/>
</svg>
